<svg width="37" height="46" viewBox="0 0 37 46" fill="none" xmlns="http://www.w3.org/2000/svg">
<path d="M18 9.5C20.4853 9.5 22.5 7.48528 22.5 5C22.5 2.51472 20.4853 0.5 18 0.5C15.5147 0.5 13.5 2.51472 13.5 5C13.5 7.48528 15.5147 9.5 18 9.5Z" fill="white"/>
<path d="M26.7525 14.2475C25.875 13.37 24.3675 11.75 21.4425 11.75C20.97 11.75 18.2475 11.75 15.7275 11.75C9.54 11.7275 4.5 6.6875 4.5 0.5H0C0 7.61 4.7475 13.64 11.25 15.5975V45.5H15.75V32H20.25V45.5H24.75V18.6125L33.6375 27.5L36.81 24.3275L26.7525 14.2475Z" fill="white"/>
</svg>
