<svg width="220" height="30" viewBox="0 0 220 30" fill="none" xmlns="http://www.w3.org/2000/svg">
<path d="M8.83954 7.16135V29.4664H16.9719V7.16135H25.8114V0.737949H0V7.16135H8.83954Z" fill="#2356CB"/>
<path d="M48.529 20.4501C50.2265 19.6557 51.6662 18.3998 52.6836 16.8259C53.6982 15.1925 54.2105 13.297 54.1569 11.3749C54.2256 9.40632 53.7003 7.46267 52.6493 5.79679C51.5983 4.1309 50.0702 2.81992 48.2639 2.03441C46.1202 1.13373 43.8116 0.692088 41.4869 0.737945H28.257V7.13188H40.8976C42.2482 7.04187 43.5864 7.43913 44.6691 8.25155C45.0945 8.6489 45.4282 9.13414 45.647 9.67352C45.8658 10.2129 45.9644 10.7935 45.9361 11.3749C45.9665 11.9565 45.8687 12.5376 45.6498 13.0773C45.4308 13.617 45.0961 14.1021 44.6691 14.4982C43.5784 15.2897 42.241 15.6658 40.8976 15.5589H28.257V29.4664H36.3894V21.835H40.8092L46.0245 29.4664H54.864L48.529 20.4501Z" fill="#2356CB"/>
<path d="M77.5817 0.737949H69.5672L56.8677 29.4664H65.1769L67.4162 23.8975L69.8029 18.0045L73.486 8.69353L77.1692 17.8867L79.5558 23.7797L81.8247 29.3486H90.2811L77.5817 0.737949Z" fill="#2356CB"/>
<path d="M96.7045 28.111C99.2173 29.4034 102.012 30.0514 104.837 29.9968C107.275 30.0418 109.695 29.5699 111.938 28.612C114.006 27.7279 115.819 26.3401 117.212 24.5752L112.026 19.8903C110.779 21.5235 108.99 22.6582 106.981 23.0903C104.971 23.5223 102.874 23.2235 101.065 22.2475C99.8017 21.5943 98.772 20.5647 98.1189 19.301C97.4592 17.9681 97.1159 16.501 97.1159 15.0138C97.1159 13.5266 97.4592 12.0595 98.1189 10.7266C98.7843 9.4719 99.8106 8.44553 101.065 7.78011C102.349 7.08455 103.79 6.7295 105.249 6.74883C106.557 6.77246 107.843 7.08601 109.015 7.66688C110.187 8.24774 111.216 9.08145 112.026 10.1079L117.212 5.4229C115.792 3.69251 113.986 2.31989 111.938 1.41565C109.694 0.459345 107.276 -0.0221943 104.837 0.00131943C102.007 -0.0338454 99.2125 0.634388 96.7045 1.94602C94.4048 3.17001 92.4879 5.0054 91.1651 7.24974C89.7797 9.58266 89.0754 12.2569 89.132 14.9696C89.0754 17.6823 89.7797 20.3565 91.1651 22.6895C92.4656 24.9811 94.3854 26.8601 96.7045 28.111Z" fill="#2356CB"/>
<path d="M127.348 7.16135V29.4664H135.363V7.16135H144.202V0.737949H118.509V7.16135H127.348Z" fill="#2356CB"/>
<path d="M146.766 0.737949V29.4664H154.898V0.737949H146.766Z" fill="#2356CB"/>
<path d="M177.409 0.737949H169.395L156.695 29.4664H165.005L167.273 23.8975L169.631 18.0045L173.343 8.81139L177.026 18.0045L179.413 23.8975L181.682 29.4664H190.138L177.409 0.737949Z" fill="#2356CB"/>
<path d="M191.906 29.4664H199.891V20.8921L191.965 10.7561L191.906 29.4664ZM211.294 0.737949V8.98818L219.25 18.5938V0.737949H211.294ZM211.294 16.0598L198.595 0.737949H191.906V4.53895L199.891 14.1446L212.561 29.4664H219.279V26.1369L211.294 16.0009V16.0598Z" fill="#2356CB"/>
</svg>
