<svg width="546" height="393" viewBox="0 0 546 393" fill="none" xmlns="http://www.w3.org/2000/svg">
<path d="M522.443 392.109C488.001 392.109 22.3674 391.105 22.3674 391.05C22.1753 390.596 -36.7429 318.386 37.4471 242.887C74.2072 205.477 3.68981 157.011 37.4471 115.399C74.9912 69.1192 112.278 69.8098 146.861 70.5004C165.542 70.8734 183.435 71.2469 200.153 64.2155C208.575 60.6771 217.026 54.9814 225.485 46.2405C230.248 41.3261 235.465 37.0275 241.053 33.3161C241.91 32.7449 242.775 32.1873 243.649 31.6453C246.995 29.5708 250.463 27.6935 254.035 26.008C256.436 24.8776 258.881 23.8311 261.372 22.8685H261.375C265.326 21.3387 269.386 20.0207 273.532 18.9103C279.419 17.3246 285.483 16.1503 291.665 15.3515C294.361 15 297.08 14.7284 299.818 14.5207C353.077 10.5185 413.014 33.0373 443.945 65.953C450.172 72.5813 478.487 106.877 456.167 154.016C442.072 183.779 501.114 212.204 522.095 246.189C575.434 332.598 522.926 390.982 522.443 392.109" fill="#EBF3FA"/>
<path d="M370.584 227.59L355.376 204.798L346.251 170.721L346.18 170.451V170.45H332.462L307.718 133.36C310.036 133.769 313.175 135.758 317.177 138.457C318.64 139.446 319.749 139.855 320.624 139.855C323.881 139.854 323.887 134.184 327.041 131.743C327.786 131.166 328.749 130.942 329.828 130.942C331.679 130.942 333.869 131.598 335.879 132.254C337.889 132.913 339.716 133.569 340.842 133.569C341.463 133.569 341.865 133.369 341.968 132.857C342.547 129.952 338.312 128.412 334.64 127.318C330.966 126.224 329.58 124.758 332.95 118.796C336.31 112.834 332.353 114.51 329.905 107.389C328.797 104.156 326.698 102.539 324.741 101.747C323.053 102.092 321.374 102.503 319.722 102.976C316.255 103.969 312.876 105.234 309.619 106.76C304.677 109.071 300.015 111.974 295.747 115.415C300.015 111.974 304.677 109.071 309.619 106.76C312.876 105.234 316.255 103.969 319.722 102.976C321.374 102.503 323.053 102.092 324.741 101.747C329.175 100.833 333.724 100.36 338.32 100.36C345.994 100.36 353.8 101.679 361.435 104.451C363.052 105.042 364.637 105.684 366.18 106.381C368.358 107.36 370.463 108.445 372.488 109.627C381.012 114.599 388.148 121.27 393.619 129.038H393.622C397.03 133.875 399.791 139.132 401.837 144.672C402.909 147.581 403.784 150.566 404.449 153.607C404.866 155.5 405.203 157.412 405.457 159.344C406.066 163.985 406.191 168.72 405.806 173.479C405.348 173.024 404.816 172.69 404.216 172.49C404.216 172.49 405.28 170.721 396.797 168.356C388.313 165.991 391.934 156.528 384.243 154.451C382.768 154.052 381.547 153.898 380.492 153.898C378.727 153.898 377.436 154.33 376.197 154.762C374.965 155.194 373.788 155.625 372.257 155.625C371.477 155.625 370.605 155.513 369.588 155.231C367.882 154.76 366.212 154.503 364.702 154.503C360.729 154.503 357.924 156.294 358.811 160.657C360.037 166.672 353.029 165.202 354.383 172.342C355.742 179.483 363.85 179.915 370.513 180.362C377.179 180.808 366.806 189.075 371.237 195.177C375.665 201.279 384.45 202.315 379.721 205.446C374.988 208.579 366.002 215.012 372.783 221.071C374.226 222.361 375.937 222.998 377.82 223.056C375.503 224.72 373.085 226.235 370.584 227.59V227.59ZM391.645 150.679C394.642 150.679 396.138 152.858 397.746 155.037C399.354 157.216 401.074 159.394 404.52 159.394C404.819 159.394 405.129 159.378 405.457 159.344C405.203 157.412 404.866 155.5 404.449 153.607C403.784 150.566 402.909 147.581 401.837 144.672C399.791 139.132 397.03 133.875 393.622 129.038H393.619C393.193 128.923 392.771 128.87 392.354 128.87C392.33 128.87 392.31 128.87 392.286 128.87C392.286 128.87 389.54 127.356 386.797 127.356C385.357 127.356 383.921 127.773 382.88 129.044C379.86 132.736 373.416 128.719 371.072 133.852C368.725 138.989 380.264 136.238 383.69 141.314C386.921 146.107 384.468 150.755 389.992 150.754C390.323 150.754 390.678 150.738 391.068 150.704C391.266 150.687 391.458 150.679 391.645 150.679V150.679ZM341.876 108.241C339.175 108.241 337.735 110.786 339.255 114.622C340.951 118.902 341.244 125.58 344.117 125.58C344.578 125.58 345.104 125.408 345.71 125.03C349.585 122.618 350.425 119.919 353.064 119.919C353.428 119.919 353.827 119.97 354.276 120.082C354.276 120.082 359.762 116.201 354.604 112.592C349.446 108.985 348.826 111.028 344.554 108.938C343.582 108.462 342.672 108.241 341.876 108.241" fill="#DBE8FE"/>
<path d="M320.623 139.856C319.751 139.856 318.642 139.445 317.177 138.458C313.175 135.756 310.035 133.771 307.719 133.358L295.746 115.415C300.015 111.972 304.679 109.071 309.62 106.759C312.875 105.235 316.254 103.968 319.722 102.975C321.374 102.503 323.052 102.093 324.74 101.746C326.698 102.539 328.796 104.155 329.907 107.39C332.352 114.509 336.31 112.834 332.947 118.796C329.581 124.758 330.967 126.223 334.64 127.316C338.311 128.412 342.547 129.951 341.967 132.857C341.867 133.368 341.462 133.568 340.841 133.568C339.717 133.568 337.891 132.914 335.879 132.255C333.868 131.6 331.677 130.944 329.828 130.944C328.747 130.944 327.785 131.167 327.041 131.741C323.886 134.184 323.881 139.853 320.623 139.856" fill="#BACDFE"/>
<path d="M377.82 223.055C375.939 222.998 374.226 222.36 372.784 221.071C366.003 215.012 374.991 208.579 379.722 205.446C384.451 202.315 375.667 201.279 371.237 195.176C366.806 189.075 377.179 180.807 370.513 180.361C363.85 179.915 355.742 179.482 354.384 172.342C353.028 165.201 360.04 166.672 358.811 160.656C357.925 156.294 360.728 154.503 364.703 154.503C366.213 154.503 367.884 154.76 369.589 155.231C370.608 155.512 371.479 155.625 372.256 155.625C373.789 155.625 374.964 155.193 376.199 154.761C377.436 154.33 378.73 153.898 380.493 153.898C381.547 153.898 382.77 154.052 384.244 154.45C391.935 156.527 388.314 165.991 396.797 168.356C405.279 170.721 404.216 172.49 404.216 172.49C404.815 172.69 405.347 173.024 405.808 173.478C405.332 179.399 404.059 185.358 401.93 191.21C400.512 195.12 398.767 198.824 396.738 202.296C391.867 210.631 385.375 217.638 377.82 223.055Z" fill="#BACDFE"/>
<path d="M404.524 159.393C401.077 159.393 399.356 157.214 397.747 155.035C396.142 152.856 394.645 150.677 391.647 150.677C391.461 150.677 391.269 150.685 391.071 150.702C390.682 150.736 390.328 150.753 389.997 150.753C384.469 150.753 386.925 146.105 383.693 141.312C380.269 136.236 368.729 138.987 371.073 133.85C373.419 128.717 379.865 132.734 382.884 129.042C383.923 127.77 385.36 127.354 386.798 127.354C389.542 127.354 392.287 128.868 392.287 128.868C392.311 128.868 392.334 128.868 392.358 128.868C392.774 128.868 393.196 128.921 393.621 129.036H393.624C397.033 133.874 399.796 139.13 401.838 144.67C402.912 147.579 403.789 150.564 404.453 153.605C404.869 155.499 405.206 157.411 405.459 159.342C405.135 159.376 404.822 159.393 404.524 159.393" fill="#BACDFE"/>
<path d="M344.12 125.577C341.246 125.577 340.952 118.902 339.256 114.618C337.739 110.785 339.179 108.24 341.879 108.24C342.675 108.24 343.583 108.461 344.558 108.937C348.827 111.025 349.449 108.982 354.607 112.591C359.765 116.197 354.281 120.08 354.281 120.08C353.832 119.968 353.432 119.917 353.066 119.917C350.429 119.917 349.591 122.618 345.712 125.03C345.106 125.406 344.582 125.577 344.12 125.577Z" fill="#BACDFE"/>
<path d="M37.7458 391.243H61.3581C62.6234 390.169 60.4826 387.731 58.2457 387.568C57.2739 387.494 56.0454 387.698 54.6417 387.994C54.3167 383.678 52.4612 364.278 45.4679 365.057C37.6047 365.931 45.4679 373.6 47.6907 378.142C49.3373 381.507 51.0744 386.329 51.868 388.607C51.2298 388.747 50.5689 388.881 49.8937 389.005C48.8516 385.807 44.9735 375.041 40.042 375.669C34.2519 376.403 36.5793 380.719 40.6832 383.28C43.6941 385.165 47.3913 387.842 49.1481 389.135C47.6595 389.379 46.1061 389.541 44.5301 389.507C40.4857 389.409 38.5113 390.601 37.7458 391.243" fill="#A8D29F"/>
<path d="M413.531 391.243H391.603C390.425 390.245 392.416 387.982 394.494 387.829C395.394 387.761 396.536 387.949 397.838 388.226C398.143 384.217 399.865 366.196 406.36 366.921C413.664 367.732 406.36 374.855 404.297 379.076C402.768 382.199 401.155 386.68 400.415 388.795C401.01 388.923 401.623 389.049 402.252 389.165C403.218 386.192 406.819 376.194 411.402 376.777C416.779 377.458 414.619 381.467 410.807 383.847C408.006 385.597 404.575 388.084 402.943 389.286C404.324 389.511 405.768 389.662 407.23 389.63C410.991 389.539 412.825 390.648 413.531 391.243" fill="#A8D29F"/>
<path d="M429.196 247.477C429.196 247.477 429.72 242.285 427.004 242.461C424.288 242.64 423.569 243.886 423.873 244.883C424.176 245.88 426.818 249.183 426.818 249.183L429.196 247.477Z" fill="#FFB27D"/>
<path d="M471.501 257.88C471.501 257.88 468.494 261.413 462.029 265.487C461.418 265.875 460.777 266.263 460.102 266.656C457.595 268.118 454.648 269.617 451.248 271.014C450.875 271.167 450.435 271.337 449.942 271.514C446.068 272.913 438.939 274.895 434.525 275.074C434.139 275.088 433.777 275.088 433.438 275.077C426.715 274.804 425.896 248.714 425.896 248.714C425.896 248.714 426.644 246.104 430.098 246.762C430.098 246.762 435.341 261.497 437.221 262.696C438.892 263.765 448.485 249.218 456.746 248.2C462.308 247.517 471.501 257.88 471.501 257.88" fill="#739AF0"/>
<path d="M453.441 385.106C453.441 385.106 453.938 390.849 452.727 391.447L437.188 391.417C437.188 391.417 437.187 389.622 439.683 389.225C442.178 388.825 446.56 387.366 447.304 384.109C448.048 380.856 453.441 385.106 453.441 385.106Z" fill="#1C3154"/>
<path d="M442.039 315.597C442.115 319.353 442.293 323.225 442.649 326.706C444.328 343.226 444.918 363.186 445.158 367.034C445.577 373.714 446.893 384.386 446.893 384.386C446.893 384.386 449.514 386.871 454.614 385.686C454.614 385.686 458.841 370.314 459.787 354.131C459.8 353.864 459.814 353.599 459.827 353.331C459.935 351.191 460.054 348.743 460.17 346.105C460.948 328.435 461.792 302.184 461.792 302.184L442.293 297.606C442.293 297.606 441.845 306.235 442.039 315.597" fill="#2A4E96"/>
<path d="M442.039 315.597C446.982 324.121 456.398 339.826 460.17 346.105C460.948 328.435 461.792 302.184 461.792 302.184L442.293 297.606C442.293 297.606 441.845 306.235 442.039 315.597" fill="#233862"/>
<path d="M449.94 271.513C446.069 272.912 438.938 274.895 434.525 275.074C435.197 274.946 440.114 273.972 441.937 271.776C443.888 269.417 447.18 263.005 449.794 265.622C451.025 266.854 450.667 269.287 449.94 271.513" fill="#6385DB"/>
<path d="M482.7 312.82C482.7 312.82 483.912 317.566 483.713 318.619C483.513 319.674 482.333 323.246 481.598 324.131C480.86 325.019 480.829 320.281 480.338 319.537C479.851 318.791 480.115 321.305 479.72 321.51C479.332 321.717 478.677 319.606 478.382 318.858C478.093 318.112 479.432 315.509 479.555 313.643C479.676 311.776 482.7 312.82 482.7 312.82" fill="#FFB27D"/>
<path d="M492.144 378.581C492.144 378.581 494.909 381.103 494.37 382.897C493.831 384.691 491.336 385.886 490.996 388.077C490.66 390.269 489.312 391.463 488.098 391.463C486.883 391.463 482.309 391.463 482.309 391.463C482.309 391.463 481.416 389.922 483.576 389.457C485.735 388.993 486.547 386.415 486.411 384.026C486.278 381.635 486.614 378.446 486.614 378.446L491.199 377.384L492.144 378.581" fill="#1C3154"/>
<path d="M445.364 302.585C445.364 302.585 463.616 341.635 473.327 358.768C483.039 375.901 486.076 380.685 486.076 380.685C486.076 380.685 491.639 378.493 492.144 376.998C492.144 376.998 488.431 343.919 481.928 335.857C478.249 331.299 473.934 317.627 473.732 312.846C473.529 308.063 469.266 296.652 469.266 296.652L445.364 302.585Z" fill="#2A4E96"/>
<path d="M441.964 300.553C441.964 300.553 447.907 306.949 458.006 308.88C462.436 309.729 471.435 310.547 473.663 307.393C474.188 306.652 474.191 305.555 474.075 303.842C473.776 299.391 472.654 290.785 477.711 273.491C478.181 271.883 478.498 270.34 478.682 268.868C479.786 260.023 479.667 253.343 471.99 249.776C460.49 244.431 455.767 248.828 455.767 248.828C455.767 248.828 449.651 251.686 446.857 260.016C441.269 276.68 441.964 300.553 441.964 300.553Z" fill="#739AF0"/>
<path d="M465.089 248.307C463.152 249.683 459.746 250.494 456.5 248.869C456.247 248.744 456.277 247.026 456.34 245.339C456.403 243.684 456.56 242.059 456.56 242.059L460.653 239.373L464.557 236.812C464.089 245.62 465.962 247.682 465.089 248.307" fill="#FFB27D"/>
<path d="M463.871 240.446C463.871 240.446 461.214 244.432 456.342 245.339C456.405 243.684 456.58 241.859 456.58 241.859L460.651 239.372L463.871 240.446" fill="#ED985F"/>
<path d="M452.896 241.022C452.896 241.022 462.797 244.718 464.999 238.617C467.202 232.516 469.963 228.886 463.734 226.269C457.508 223.652 455.433 225.539 454.195 227.396C452.956 229.253 450.379 239.904 452.896 241.022" fill="#FFB27D"/>
<path d="M471.167 226.955C471.281 226.867 471.51 226.822 471.994 226.892C471.994 226.892 471.658 226.578 471.154 226.464C471.184 225.781 471.063 224.538 469.978 224.029C469.978 224.029 470.525 224.475 470.465 225.196C469.413 223.578 466.78 222.03 458.814 221.1C448.319 219.876 450.418 227.164 451.601 228.217C452.783 229.27 456.576 227.773 459.029 228.463C461.485 229.153 461.246 232.849 461.995 233.511C462.741 234.171 462.583 233.232 463.83 232.942C465.076 232.649 464.811 234.566 464.236 235.735C463.662 236.902 464.912 238.838 464.912 238.838C464.912 238.838 464.912 238.838 466.84 237.441C468.765 236.044 471.695 229.093 471.278 227.406C471.241 227.257 471.204 227.106 471.167 226.955" fill="#2C3A64"/>
<path d="M474.076 303.842C473.777 299.391 472.658 290.785 477.711 273.491C478.184 271.883 478.5 270.34 478.684 268.869C474.929 267.63 468.084 270.386 468.084 270.386C468.084 270.386 466.475 293.246 474.076 303.842Z" fill="#6385DB"/>
<path d="M474.063 250.933C474.063 250.933 478.682 252.614 481.631 264.848C483.582 272.933 487.164 284.814 487.568 288.549C487.973 292.284 483.471 314.145 483.471 314.145C483.471 314.145 482.835 314.607 481.279 314.296C479.789 313.998 479.097 312.992 479.097 312.992C479.097 312.992 478.018 298.42 478.298 291.54C478.412 288.682 465.066 270.607 457.86 268.278C455.032 267.365 474.063 250.933 474.063 250.933Z" fill="#739AF0"/>
<path d="M409.422 235.095C409.422 235.095 422.78 234.713 438.194 237.551L439.802 233.493L441.57 229.047C441.57 229.047 426.095 222.386 416.795 213.108L409.422 235.095" fill="#AEC3FF"/>
<path d="M417.006 212.892L409.336 235.531C408.218 235.199 407.604 233.995 407.994 232.891L414.743 213.87C415.069 212.95 416.112 212.499 417.006 212.892Z" fill="#F99746"/>
<path d="M424.327 251.942C425.818 252.241 427.28 251.265 427.578 249.773L430.218 236.56C430.519 235.071 429.544 233.607 428.05 233.309C426.56 233.012 425.097 233.988 424.796 235.478L422.157 248.69C421.859 250.18 422.837 251.644 424.327 251.942" fill="#F99746"/>
<path d="M409.423 235.094C409.423 235.094 422.779 234.713 438.195 237.55L439.804 233.492C425.322 230.536 409.423 235.094 409.423 235.094Z" fill="#739AF0"/>
<path d="M433.93 236.736L438.104 237.47C438.04 237.472 441.981 238.237 443.274 234.744C443.392 234.504 443.468 234.27 443.519 233.991C444.525 229.638 442.134 228.836 442.134 228.836L436.761 226.742L435.057 232.782C435.057 232.782 435.057 232.782 435.057 232.803L433.93 236.736" fill="#F99746"/>
<path d="M433.931 236.735L438.105 237.47C438.041 237.472 441.982 238.237 443.274 234.744C440.912 233.026 435.055 232.782 435.055 232.782C435.055 232.782 435.055 232.782 435.055 232.803L433.931 236.735" fill="#ED7D2B"/>
<path d="M424.683 239.15C424.683 239.15 426.723 239.963 426.35 240.863C425.974 241.76 423.379 242.996 422.969 242.287C422.56 241.579 423.398 238.39 424.683 239.15" fill="#FFB27D"/>
<path d="M429.235 246.659C429.235 246.659 429.619 244.57 429.644 243.61C429.666 242.65 429.781 241.867 429.554 241.839C429.328 241.814 429.164 241.99 429.071 242.299C428.977 242.606 428.624 244.521 428.624 244.521L428.804 246.366L429.235 246.659Z" fill="#FFB27D"/>
<path d="M227.286 245.295L215.719 382.836C215.719 382.836 214.508 391.175 220.709 391.189C230.905 391.214 271.463 391.189 271.463 391.189C271.463 391.189 263.786 389.453 263.879 385.548C263.991 380.946 277.401 243.993 277.401 243.993L227.286 245.295" fill="#7599EA"/>
<path d="M275.279 388.749C273.273 388.756 234.01 388.821 224.081 388.693C219.754 388.64 218.994 384.847 218.959 382.39C218.94 381.214 219.089 380.342 219.089 380.342L219.391 376.768L220.158 367.657L220.834 359.607L221.704 349.262L222.438 340.533L230.656 242.799L280.771 241.497C280.771 241.497 275.123 298.812 271.128 340.533C270.682 345.181 270.257 349.636 269.866 353.799C269.738 355.126 269.615 356.425 269.497 357.689C269.127 361.636 268.788 365.261 268.493 368.462C268.337 370.149 268.195 371.715 268.065 373.152C267.554 378.778 267.256 382.371 267.252 383.055C267.249 383.452 267.284 383.822 267.349 384.168C268.172 388.551 274.526 388.749 275.279 388.749" fill="#90AFF4"/>
<path d="M105.581 170.451L133.758 283.629L137.616 299.131L150.739 351.847H394.549L346.18 170.451H105.581Z" fill="#AEC3FF"/>
<path d="M105.581 170.449L101.677 171.75L145.548 355.783L150.74 351.846L105.581 170.449" fill="#90AFF4"/>
<path d="M145.548 355.784H387.857L394.549 351.847H150.739L145.548 355.784Z" fill="#7599EA"/>
<path d="M230.64 391.243H283.104V388.749H230.64V391.243Z" fill="#AEC3FF"/>
<path d="M269.769 355.783L269.497 357.689L220.158 367.657L220.834 359.607L221.157 355.783H269.769Z" fill="#5888DD"/>
<path d="M275.279 388.749H232.98C229.201 388.737 226.059 388.719 224.081 388.693C219.754 388.64 218.994 384.847 218.959 382.39L268.065 373.152C267.554 378.779 267.256 382.372 267.252 383.055C267.252 383.067 267.252 383.078 267.252 383.092C267.252 383.476 267.287 383.834 267.349 384.168C268.172 388.551 274.526 388.749 275.279 388.749" fill="#7A9FEB"/>
<path d="M251.259 388.772C244.882 388.772 238.3 388.765 232.98 388.749H275.279C274.236 388.753 263.099 388.772 251.259 388.772Z" fill="#8CABF1"/>
<path d="M105.582 170.449H346.183L385.218 316.236H141.875L105.582 170.449Z" fill="#AEC3FF"/>
<path d="M373.872 309.916H148.597L140.547 277.848L137.433 265.439L136.162 260.38L127.889 227.424L127.46 225.708L123.086 208.287L121.13 200.494L119.46 193.844L115.548 178.258H337.574L341.87 193.844L343.704 200.494L345.852 208.287L360.01 259.638V259.641L361.21 263.991L361.767 266.011L371.542 301.461L373.872 309.916Z" fill="#739AF0"/>
<path d="M341.869 193.847H119.46L115.547 178.26H337.574L341.869 193.847Z" fill="#607CF4"/>
<path d="M124.733 185.302C124.464 184.226 125.119 183.355 126.196 183.355C127.272 183.355 128.362 184.226 128.63 185.302C128.898 186.378 128.244 187.252 127.167 187.252C126.091 187.252 125.001 186.378 124.733 185.302Z" fill="#E9F3FE"/>
<path d="M131.208 185.302C130.939 184.226 131.594 183.355 132.67 183.355C133.746 183.355 134.836 184.226 135.105 185.302C135.373 186.378 134.718 187.252 133.642 187.252C132.566 187.252 131.476 186.378 131.208 185.302Z" fill="#E9F3FE"/>
<path d="M138.179 185.302C137.911 184.226 138.566 183.355 139.642 183.355C140.718 183.355 141.808 184.226 142.076 185.302C142.345 186.378 141.69 187.252 140.613 187.252C139.537 187.252 138.447 186.378 138.179 185.302Z" fill="#E9F3FE"/>
<path d="M293.407 87.6403C302.513 76.9488 316.554 55.4735 326.006 44.4761C327.952 42.2133 326.336 38.7216 323.35 38.7216H306.15L322.375 2.03185C323.066 0.465309 320.932 -0.782125 319.909 0.589256L280.677 53.0973C279.532 54.6296 280.782 56.7842 282.681 56.5522L302.155 54.1549L290.569 85.9788C289.931 87.73 292.199 89.0592 293.407 87.6403" fill="#F77D48"/>
<path d="M212.423 152.753C214.471 142.248 215.763 122.732 217.929 111.892C218.373 109.661 215.993 107.946 214.011 109.064L202.588 115.497L199.641 85.0605C199.513 83.7613 197.63 83.7311 197.461 85.0257L191.046 134.574C190.858 136.019 192.496 136.984 193.67 136.119L205.707 127.241L209.916 152.713C210.148 154.115 212.151 154.147 212.423 152.753" fill="#AEC3FF"/>
<path d="M383.709 313.022L187.966 329.512C173.1 330.765 162.345 315.614 168.431 301.995L251.359 116.399C257.652 102.319 276.99 100.689 285.547 113.518L398.363 282.623C406.641 295.031 398.573 311.77 383.709 313.022" fill="#E6EFFF"/>
<path d="M268.23 112.27C263.75 112.646 259.979 115.322 258.145 119.429L175.215 305.027C173.441 308.997 173.885 313.482 176.402 317.029C178.919 320.576 183.01 322.474 187.342 322.109L383.086 305.617C387.42 305.252 391.134 302.696 393.022 298.777C394.911 294.861 394.597 290.364 392.184 286.746L279.369 117.639C276.875 113.899 272.708 111.891 268.23 112.27V112.27ZM384.333 320.424L188.59 336.916C178.963 337.727 169.876 333.509 164.284 325.631C158.692 317.754 157.707 307.784 161.649 298.964L244.578 113.365C248.653 104.246 257.029 98.3009 266.983 97.4597C276.937 96.6215 286.188 101.084 291.733 109.392L404.549 278.499C409.909 286.536 410.604 296.528 406.41 305.232C402.213 313.933 393.962 319.613 384.333 320.424" fill="#F77D48"/>
<path d="M293.907 249.213L265.711 251.589L253.6 155.586L289.784 152.537L293.907 249.213ZM263.642 284.626C263.431 282.104 263.684 279.734 264.405 277.516C265.125 275.302 266.241 273.34 267.754 271.634C269.267 269.931 271.14 268.538 273.378 267.465C275.614 266.393 278.18 265.731 281.08 265.487C283.976 265.243 286.637 265.464 289.061 266.145C291.485 266.825 293.586 267.881 295.362 269.308C297.14 270.737 298.567 272.485 299.65 274.549C300.728 276.612 301.377 278.906 301.591 281.428C301.802 283.952 301.546 286.304 300.824 288.479C300.099 290.659 298.981 292.602 297.47 294.306C295.957 296.012 294.063 297.404 291.785 298.48C289.51 299.556 286.923 300.218 284.027 300.462C281.127 300.706 278.487 300.486 276.102 299.802C273.717 299.119 271.637 298.062 269.862 296.632C268.084 295.205 266.654 293.478 265.578 291.45C264.5 289.423 263.856 287.148 263.642 284.626" fill="#F77D48"/>
<path d="M142.093 255.1C142.093 255.1 142.707 253.72 143.104 253.067C143.502 252.414 145.2 250.499 145.489 250.933C145.778 251.365 146.934 254.285 146.32 255.1C145.706 255.918 146.36 257.341 143.305 258.201L142.093 255.1" fill="#FFB27D"/>
<path d="M108.144 246.385C108.144 246.385 123.782 259.439 129.88 258.231C134.648 257.285 142.186 254.893 142.186 254.893C142.186 254.893 144.176 256.787 143.613 259.056C143.613 259.056 134.009 268.092 127.167 268.15C116.472 268.241 111.428 262.851 111.428 262.851L108.144 246.385Z" fill="#ED7D2B"/>
<path d="M80.7173 384.077C80.7173 384.077 81.1715 391.401 82.5883 391.505C82.7768 391.519 89.7744 391.519 89.7744 391.519L98.7072 391.468C98.7072 391.468 98.6486 389.313 96.0375 388.86C93.4266 388.405 89.0561 386.569 87.4743 383.117C85.8104 379.487 80.7173 384.077 80.7173 384.077" fill="#113C68"/>
<path d="M80.2026 384.584C80.2026 384.584 82.9181 385.493 85.0381 385.493C87.4032 385.493 89.5525 384.849 89.5525 384.849C89.5525 384.849 90.0638 379.905 92.8772 369.012C94.352 363.302 96.4584 355.96 99.4553 346.838C107.741 321.626 110.261 306.877 110.491 305.48C110.503 305.408 110.508 305.371 110.508 305.371L110.481 305.359L85.0072 294.173C85.0072 294.173 88.1557 328.921 84.1389 342.259C83.576 344.123 83.0942 346.294 82.6808 348.648C80.144 363.135 80.2026 384.584 80.2026 384.584Z" fill="#2A4E96"/>
<path d="M92.8772 369.012C94.3521 363.302 96.4584 355.96 99.4554 346.838C107.741 321.626 110.261 306.877 110.491 305.48C110.488 305.438 110.486 305.399 110.481 305.359L85.0072 294.173C85.0072 294.173 88.1557 328.921 84.1389 342.259C83.576 344.123 92.8772 369.012 92.8772 369.012" fill="#233862"/>
<path d="M100.614 384.077C100.614 384.077 101.068 391.401 102.485 391.505C102.673 391.519 109.671 391.519 109.671 391.519L118.603 391.468C118.603 391.468 118.545 389.313 115.934 388.86C113.323 388.405 108.952 386.569 107.371 383.117C105.707 379.487 100.614 384.077 100.614 384.077" fill="#15447C"/>
<path d="M115.056 294.992C115.056 294.992 115.387 317.51 111.491 345.156C107.595 372.803 108.916 384.538 108.916 384.538C108.916 384.538 106.239 385.405 105.159 385.493C102.407 385.718 99.5854 384.849 99.5854 384.849C99.5854 384.849 94.0092 357.192 95.6079 343.354C97.2067 329.517 87.972 295.87 87.972 295.87L115.056 294.992" fill="#2A4E96"/>
<path d="M96.9934 242.301L101.966 245.56L106.495 244.279C107.323 243.099 107.542 240.821 107.554 238.85C107.567 236.891 107.377 235.234 107.377 235.234L100.668 232.273L98.1648 231.169C98.1722 231.208 98.3595 233.226 98.3862 233.519C98.8539 238.748 96.9934 242.301 96.9934 242.301Z" fill="#FFB27D"/>
<path d="M115.17 301.253C108.981 307.228 85.5578 306.224 84.1143 299.64C82.6731 293.055 85.6886 243.591 96.2608 240.484C98.4548 239.84 110.184 243.631 110.184 243.631C110.184 243.631 112.024 248.446 113.231 254.575C113.465 255.769 114.149 268.408 114.661 280.233C114.9 285.765 115.102 291.117 115.205 295.038C115.299 298.71 115.303 301.122 115.17 301.253" fill="#F99746"/>
<path d="M98.888 233.611C100.249 235.912 105.024 237.927 107.554 238.85C107.567 236.891 107.377 235.234 107.377 235.234L100.668 232.273C99.185 232.252 98.2816 232.584 98.888 233.611" fill="#FCA56B"/>
<path d="M109.907 234.825C109.907 234.825 99.0979 238.197 97.1017 231.434C95.1055 224.668 92.3658 220.55 99.1829 218.109C106 215.671 108.109 217.854 109.324 219.95C110.54 222.047 112.667 233.774 109.907 234.825" fill="#FFB27D"/>
<path d="M108.9 219.299C108.9 219.299 108.21 227.169 106.582 226.827C104.955 226.486 103.163 225.756 103.401 228.129C103.64 230.499 101.819 234.569 99.4714 234.557C94.4376 234.536 88.968 221.619 90.3462 219.172C94.3223 212.104 114.647 210.677 108.9 219.299Z" fill="#163560"/>
<path d="M107.309 240.656C107.17 240.598 99.2627 237.049 98.3379 237.356C97.4131 237.66 96.2604 240.484 96.2604 240.484L110.184 243.633C110.184 243.633 109.088 241.404 107.309 240.656" fill="#ED7D2B"/>
<path d="M156.538 278.962L112.212 320.696C111.343 321.514 110.248 321.775 109.778 321.275L108.281 319.685C107.811 319.186 108.137 318.11 109.006 317.291L153.332 275.557C154.201 274.739 155.297 274.479 155.767 274.979L157.263 276.566C157.732 277.066 157.407 278.144 156.538 278.962" fill="#1F4D84"/>
<path d="M131.664 302.382L112.212 320.696C111.343 321.514 110.248 321.775 109.778 321.275L108.281 319.685C107.811 319.186 108.137 318.11 109.006 317.291L128.457 298.977L131.664 302.382" fill="#739AF0"/>
<path d="M156.281 231.141C163.931 223.007 174.833 219.767 185.071 221.538C191.037 222.572 196.773 225.303 201.512 229.763C214.385 241.871 215.001 262.122 202.89 274.995C198.432 279.731 192.873 282.808 186.984 284.203C176.871 286.597 165.792 284.029 157.658 276.375C144.787 264.264 144.168 244.014 156.281 231.141V231.141ZM146.35 263.205C148.052 268.813 151.203 274.065 155.779 278.372C169.755 291.519 191.743 290.845 204.889 276.873C217.864 263.081 217.381 241.493 203.936 228.292C203.757 228.113 203.575 227.938 203.39 227.766C189.417 214.619 167.431 215.286 154.284 229.261C145.44 238.66 142.846 251.684 146.35 263.205" fill="#1F4D84"/>
<path d="M168.704 283.169C166.427 282.348 164.221 281.258 162.136 279.899C160.57 278.876 159.069 277.702 157.658 276.375C144.787 264.264 144.168 244.014 156.281 231.141C156.784 230.604 157.302 230.09 157.834 229.598C163.935 223.929 171.754 221.068 179.588 221.068C181.422 221.068 183.256 221.226 185.071 221.54C188.413 222.119 191.685 223.23 194.749 224.882L168.704 283.169Z" fill="#93B5F5"/>
<path d="M184.288 284.721L206.304 235.447C206.392 235.58 206.481 235.715 206.567 235.849C209.416 240.307 211.057 245.329 211.477 250.44C212.191 259.153 209.353 268.124 202.89 274.995C198.432 279.731 192.873 282.808 186.984 284.203C186.093 284.414 185.192 284.586 184.288 284.721" fill="#CCDFFC"/>
<path d="M179.577 285.068C178.563 285.068 177.55 285.019 176.539 284.924C173.882 284.673 171.249 284.087 168.704 283.169L194.748 224.882C195.957 225.533 197.135 226.267 198.27 227.085C199.392 227.897 200.477 228.787 201.512 229.763C203.364 231.504 204.963 233.414 206.304 235.448L184.288 284.721C182.728 284.951 181.152 285.068 179.577 285.068Z" fill="#D5A6A1"/>
<path d="M179.579 285.068C178.566 285.068 177.55 285.019 176.539 284.924C177.55 285.019 178.563 285.068 179.577 285.068C181.152 285.068 182.728 284.951 184.288 284.721C185.192 284.587 186.093 284.415 186.984 284.203C192.873 282.809 198.432 279.731 202.89 274.995C209.353 268.125 212.191 259.154 211.477 250.441C212.191 259.154 209.353 268.125 202.892 274.995C198.432 279.731 192.873 282.809 186.984 284.205C184.555 284.779 182.066 285.068 179.579 285.068V285.068ZM162.136 279.899C160.568 278.876 159.069 277.702 157.658 276.375C144.786 264.264 144.169 244.014 156.28 231.141C156.784 230.604 157.302 230.091 157.834 229.598C157.302 230.091 156.784 230.604 156.281 231.141C144.168 244.014 144.787 264.264 157.658 276.375C159.069 277.702 160.57 278.876 162.136 279.899V279.899ZM206.567 235.85C206.481 235.715 206.392 235.58 206.304 235.448C204.963 233.414 203.364 231.504 201.512 229.763C200.477 228.787 199.392 227.897 198.269 227.085C199.392 227.897 200.477 228.787 201.512 229.76C203.485 231.617 205.172 233.667 206.567 235.85Z" fill="#698EBF"/>
<path d="M115.205 295.038C90.7808 277.635 92.8118 254.41 92.8118 254.41C101.739 259.444 110.597 270.576 114.661 280.233C114.9 285.765 115.102 291.117 115.205 295.038Z" fill="#ED7D2B"/>
<path d="M139.311 287.113C141.033 286.715 142.19 285.414 142.43 285.186C142.43 285.186 143.164 285.235 142.31 286.801C142.238 286.934 142.079 287.271 141.959 287.508C141.91 287.605 141.978 287.719 142.087 287.726C143.081 287.803 144.08 287.41 145.995 287.808C146.259 287.863 146.336 288.496 146.326 288.765C146.309 289.223 146.341 289.734 145.811 290.434C145.503 290.841 144.642 291.28 142.725 292.049C141.995 292.344 139.907 292.123 137.95 291.449L136.386 290.727L136.871 287.819L137.264 287.903C137.887 288.033 138.66 287.271 139.311 287.113" fill="#FFB27D"/>
<path d="M100.392 243.633C100.392 243.633 78.4462 247.812 106.848 279.592C111.391 284.674 135.932 291.291 135.932 291.291C135.932 291.291 138.421 289.174 137.166 287.459C137.166 287.459 120.269 275.187 116.551 273.237C114.878 272.359 110.06 253.652 107.333 249.148C104.607 244.642 100.392 243.633 100.392 243.633Z" fill="#F99746"/>
<path d="M142.688 255.486C142.688 255.486 143.406 254.115 143.546 253.392C143.686 252.667 144.59 250.557 144.962 250.185C145.111 250.036 145.603 250.229 145.661 250.868C145.686 251.147 145.55 251.654 145.308 252.258C144.916 253.239 144.98 254.57 144.844 255.014C144.504 256.121 142.688 255.486 142.688 255.486Z" fill="#FFB27D"/>
<path d="M151.422 201.037C151.049 201.464 151.001 201.943 151.185 202.452L151.189 202.461C151.53 203.405 152.658 204.458 153.968 205.511C154.135 205.645 154.284 205.769 154.414 205.882C154.448 205.913 154.482 205.943 154.514 205.973C154.541 205.996 154.566 206.02 154.591 206.043C155.813 207.17 155.353 207.428 157.549 209.715C160.049 212.32 161.774 212.367 162.264 212.13C162.68 211.927 161.837 210.547 160.905 208.994C160.858 208.918 160.814 208.843 160.768 208.767C160.644 208.56 160.519 208.351 160.396 208.144C159.303 206.275 159.585 205.397 159.845 202.617C160.056 200.356 163.364 189.992 163.364 189.992L158.567 189.163C158.567 189.163 157.121 197.418 155.528 198.687C154.676 199.366 153.723 199.373 152.905 199.875C152.847 199.909 152.79 199.947 152.735 199.984C152.27 200.291 151.796 200.609 151.422 201.037" fill="#FFB27D"/>
<path d="M151.422 201.037C151.049 201.464 151.001 201.943 151.185 202.452L151.189 202.461C151.607 203.403 152.706 204.453 153.973 205.501C154.138 205.638 154.284 205.766 154.414 205.882C154.448 205.913 154.482 205.943 154.514 205.973C154.541 205.996 154.566 206.02 154.591 206.043C155.813 207.17 155.353 207.428 157.549 209.715C160.049 212.32 161.774 212.367 162.264 212.13C162.68 211.927 161.837 210.547 160.905 208.994C160.417 208.815 158.153 207.895 156.442 205.703C154.99 203.849 154.005 201.487 153.017 200.035C152.908 200.016 152.843 200.002 152.735 199.984C152.27 200.291 151.796 200.609 151.422 201.037" fill="#233862"/>
<path d="M190.107 198.055C190.402 199.535 192.515 199.289 194.872 198.715C197.231 198.138 196.671 198.824 200.027 198.452C203.383 198.083 204.401 196.832 204.503 196.332C204.596 195.889 202.936 195.733 201.158 195.526C200.935 195.503 200.71 195.475 200.484 195.447C198.476 195.194 197.005 193.897 195.183 192.832C193.454 191.824 190.876 187.715 190.876 187.715L186.275 188.077C186.275 188.077 188.687 191.747 189.621 193.344C190.17 194.28 190.142 195.521 190.072 196.479C190.037 196.999 190.003 197.532 190.107 198.055" fill="#FFB27D"/>
<path d="M194.872 198.715C197.231 198.138 196.671 198.824 200.027 198.452C203.383 198.083 204.401 196.832 204.503 196.332C204.596 195.889 202.936 195.733 201.158 195.526L201.142 195.561C201.142 195.561 199.127 196.988 196.334 197.053C194.056 197.109 191.646 196.456 190.072 196.479C190.037 196.999 190.003 197.532 190.107 198.055C190.402 199.535 192.515 199.289 194.872 198.715" fill="#233862"/>
<path d="M172.476 168.615L168.17 180.194L162.548 195.31C162.548 195.31 161.023 195.456 159.564 195.036C158.218 194.647 156.677 193.629 156.677 193.629C156.677 193.629 158.241 177.398 161.156 168.08C161.902 165.687 162.738 163.753 163.661 162.665C168.174 157.336 172.476 168.615 172.476 168.615" fill="#233862"/>
<path d="M168.109 150.224C165.66 149.434 159.268 150.208 152.336 151.461C150.42 151.807 148.49 150.933 147.481 149.267L130.036 147.9C130.036 147.9 124.275 160.664 127.424 168.799C127.887 169.996 128.903 170.742 130.472 170.767C130.472 170.767 141.014 170.786 144.385 170.786C153.061 170.788 162.75 164.829 164.003 164.578C166.053 164.169 166.873 168.271 168.92 172.578C170.97 176.887 188.192 191.656 188.192 191.656C188.192 191.656 190.839 191.684 191.934 191.275C193.11 190.834 193.54 190.262 193.54 190.262C193.54 190.262 174.466 152.276 168.109 150.224" fill="#2A4E96"/>
<path d="M145.646 98.0361C144.35 97.2645 143.087 97.1459 142.314 97.1692C141.775 97.1831 141.237 97.1483 140.705 97.0716C134.047 96.0908 130.034 105.761 129.798 108.685C129.364 114.049 126.526 114.865 122.53 118.226C114.518 124.959 116.864 132.789 121.243 135.698C123.87 137.446 128.503 135.701 128.503 135.701C128.568 135.747 141.174 128.661 147.387 125.242C156.701 123.922 149.386 100.265 145.646 98.0361Z" fill="#233862"/>
<path d="M142.181 122.328C142.209 122.347 139.124 123.397 137.062 122.484C135.123 121.626 133.654 118.435 133.683 118.433C134.566 118.391 135.535 117.622 136.282 112.557L136.658 112.692L142.976 114.97C142.976 114.97 142.517 116.997 142.221 118.926C141.971 120.548 141.836 122.1 142.181 122.328" fill="#FFB27D"/>
<path d="M142.976 114.97C142.976 114.97 142.723 116.062 142.355 118.105C138.726 117.452 137.169 114.656 136.658 112.692L142.976 114.97Z" fill="#ED975D"/>
<path d="M143.916 116.982C143.916 116.982 135.272 115.818 136.079 110.447C136.886 105.074 136.314 101.306 141.867 101.822C147.421 102.338 148.183 104.548 148.349 106.408C148.516 108.265 146.185 117.145 143.916 116.982" fill="#FFB27D"/>
<path d="M148.035 103.461C148.035 103.461 142.5 108.23 138.736 108.611C134.971 108.994 133.547 107.786 133.547 107.786C133.547 107.786 135.766 105.945 137.102 102.973C137.496 102.096 138.328 101.494 139.285 101.413C141.972 101.183 147.068 101.078 148.035 103.461Z" fill="#233862"/>
<path d="M144.576 103.033C144.576 103.033 146.427 104.825 147.009 106.152C147.572 107.433 147.739 110.498 147.291 111.714C147.291 111.714 150.177 106.108 148.545 103.382C146.814 100.49 144.576 103.033 144.576 103.033Z" fill="#233862"/>
<path d="M149.456 135.066C149.188 152.565 149.379 148.906 147.465 150.568C147.003 150.968 145.707 151.205 144 151.317C138.634 151.672 129.202 150.784 128.844 149.792C127.607 146.361 128.481 145.295 127.451 140.042C127.343 139.482 127.21 138.878 127.054 138.22C126.195 134.611 125.357 133.384 128.413 127.59C131.185 122.339 134.064 118.079 134.323 118.233C141.629 122.574 142.22 118.928 142.22 118.928C142.22 118.928 149.587 126.53 149.456 135.066" fill="#F99746"/>
<path d="M168.17 180.194L162.548 195.31C162.548 195.31 161.023 195.456 159.564 195.036C158.218 194.647 156.677 193.629 156.677 193.629C156.677 193.629 158.241 177.398 161.156 168.08L168.17 180.194" fill="#2A4E96"/>
<path d="M142.221 118.925C142.221 118.925 149.74 120.204 150.622 123.441C151.504 126.681 154.404 146.331 154.404 146.331C154.404 146.331 152.282 148.402 150.517 146.636C148.752 144.87 144.966 128.247 144.966 128.247L142.221 118.925" fill="#F99746"/>
<path d="M144 151.317C138.634 151.672 129.202 150.784 128.844 149.792C127.607 146.361 128.481 145.295 127.451 140.042L130.041 132.754C130.041 132.754 129.611 140.87 132.003 143.005C134.393 145.141 141.8 147.128 142.963 148.913C143.524 149.769 143.893 150.629 144 151.317Z" fill="#ED7D2B"/>
<path d="M137.854 147.902C137.854 147.902 143.148 146.724 144.002 147.196C144.856 147.665 146.942 149.376 147.204 149.971C147.465 150.568 145.302 149.52 144.599 149.329C144.143 149.208 142.944 149.625 142.35 149.822C139.851 150.654 138.32 150.224 138.32 150.224L137.854 147.902Z" fill="#FFB27D"/>
<path d="M134.318 118.228C134.318 118.228 127.21 118.665 124.749 122.096C121.283 126.925 114.405 147.512 118.342 150.259C122.776 153.353 138.525 151.075 138.525 151.075C138.525 151.075 139.05 148.625 138.321 147.44C137.593 146.255 125.744 144.337 125.197 143.789C124.65 143.243 132.037 133.128 132.037 131.487C132.038 129.846 134.318 118.228 134.318 118.228" fill="#F99746"/>
<path d="M144.257 148.67C144.257 148.67 145.366 150.099 145.729 150.271C146.093 150.441 146.328 150.399 146.328 150.399L145.581 149.053L144.257 148.67Z" fill="#FFB27D"/>
<path d="M144.002 147.196L147.226 148.763C147.226 148.763 147.089 148.986 146.691 148.969C146.294 148.951 145.293 148.584 145.293 148.584L144.002 147.196" fill="#FFB27D"/>
<path d="M171.537 150.887L137.852 150.875L137.852 151.619L171.238 151.63L171.537 150.887" fill="#233862"/>
<path d="M145.729 151.621L171.238 151.63L178.919 132.549L153.449 132.54L145.729 151.621Z" fill="#233862"/>
<path d="M164.802 142.085C164.995 141.416 164.607 140.872 163.935 140.872C163.266 140.87 162.566 141.414 162.373 142.085C162.181 142.755 162.569 143.298 163.238 143.301C163.91 143.301 164.609 142.757 164.802 142.085Z" fill="white"/>
<path d="M337.439 223.58C334.004 222.439 331.625 223.878 331.625 223.878C321.732 224.285 321.365 234.427 322.526 238.201C324.157 243.503 318.385 247.681 324.784 249.827C332.213 252.316 338.448 249.364 338.021 250.645C361.511 252.497 345.257 226.174 337.439 223.58" fill="#163560"/>
<path d="M327.178 272.908C327.178 272.908 326.236 274.77 324.534 276.908C322.475 279.483 311.691 273.373 312.618 272.908C313.547 272.443 318.969 256.825 320.259 254.864C321.551 252.9 325.947 251.882 325.947 251.882L327.178 272.908Z" fill="#F99746"/>
<path d="M363.585 378.237C363.585 378.237 366.561 380.956 365.98 382.885C365.4 384.817 362.712 386.104 362.351 388.463C361.984 390.822 360.533 392.11 359.226 392.11C357.918 392.11 352.992 392.11 352.992 392.11C352.992 392.11 352.031 390.45 354.354 389.948C356.678 389.449 357.555 386.676 357.411 384.101C357.264 381.528 357.628 378.095 357.628 378.095L362.565 376.952L363.585 378.237" fill="#1F447F"/>
<path d="M338.38 379.392C338.38 379.392 339.452 390.904 338.145 391.547L321.418 391.512C321.418 391.512 321.418 389.581 324.104 389.153C326.791 388.724 331.509 387.15 332.309 383.646C333.109 380.143 338.38 379.392 338.38 379.392Z" fill="#1C3154"/>
<path d="M351.251 265.143C351.251 265.143 351.502 268.656 351.251 272.875C351.086 275.671 348.258 279.415 347.857 280.34C346.849 282.664 345.717 283.043 345.717 283.043L336.933 285.195L333.844 285.95L324.104 283.043C324.104 283.043 319.67 270.66 321.449 263.69C323.229 256.72 325.951 251.881 325.951 251.881C325.951 251.881 332.57 250.394 344.247 251.221L351.251 265.143" fill="#F99746"/>
<path d="M352.086 272.973C351.92 275.769 348.255 279.416 347.856 280.34C346.848 282.665 345.712 283.043 345.712 283.043L336.93 285.196L335.342 280.65C335.342 280.65 348.176 277.28 346.114 265.401L352.086 272.973Z" fill="#ED7D2B"/>
<path d="M324.722 284.921C324.722 284.921 319.897 299.935 319.587 305.046C319.277 310.156 328.808 377.656 329.19 380.01C329.554 382.232 332.309 383.645 332.309 383.645C332.309 383.645 333.576 384.393 335.386 383.882C337.897 383.173 338.692 382.325 338.692 382.325C338.692 382.325 342.445 334.185 340.121 316.989C337.8 299.793 337.772 284.921 337.772 284.921H324.722Z" fill="#233862"/>
<path d="M345.155 284.476C345.155 284.476 352.513 294.346 353.198 301.019C353.884 307.694 354.274 331.132 355.736 337.637C357.196 344.143 362.564 356.66 362.564 376.952C362.564 376.952 362.008 378.114 360.285 378.732C359.733 378.932 358.994 379.123 358.279 379.288C356.857 379.613 355.4 378.921 354.749 377.615C351.12 370.305 339.558 346.736 338.964 341.844C338.547 338.381 334.897 315.465 326.934 302.018C325.02 298.79 328.106 285.951 328.106 285.951L345.155 284.476" fill="#2A4E96"/>
<path d="M323.951 282.604C323.951 282.604 325.887 284.135 329.732 284.215C334.329 284.305 345.713 283.043 345.713 283.043C345.713 283.043 346.218 284.456 346.2 285.948C346.2 285.948 332.295 289.456 324.236 286.46C324.236 286.46 323.198 284.505 323.951 282.604" fill="#233862"/>
<path d="M328.631 284.122C327.861 284.122 327.23 284.875 327.23 285.8C327.23 286.725 327.861 287.478 328.631 287.478C329.406 287.478 330.032 286.725 330.032 285.8C330.032 284.875 329.406 284.122 328.631 284.122ZM328.631 288.173C327.477 288.173 326.534 287.108 326.534 285.8C326.534 284.491 327.477 283.427 328.631 283.427C329.788 283.427 330.727 284.491 330.727 285.8C330.727 287.108 329.788 288.173 328.631 288.173Z" fill="white"/>
<path d="M338.675 292.489L317.778 292.684L307.494 268.518L328.394 268.323L338.675 292.489" fill="#B5453C"/>
<path d="M335.944 281.567L334.411 279.685C334.411 279.685 333.376 278.76 332.624 278.604C331.871 278.446 330.283 277.53 330.129 277.788C329.975 278.046 331.348 279.887 331.348 279.887L331.419 279.898C329.841 281.084 325.857 280.038 325.367 280.521C324.769 281.107 326.188 282.376 326.948 283.089C327.708 283.801 329.879 284.988 331.576 284.461C332.81 284.075 334.76 283.682 334.76 283.682L335.944 281.567" fill="#FFB27D"/>
<path d="M309.066 272.768C309.066 272.768 310.379 271.276 311.216 271.992C312.051 272.708 310.997 276.231 310.201 275.873C309.406 275.516 308.61 273.205 309.066 272.768" fill="#FFB27D"/>
<path d="M344.246 251.221C344.246 251.221 350.229 251.881 354.523 259.68C357.908 265.832 363.697 277.172 361.511 280.377C360.552 281.783 351.364 286.787 333.638 283.926C333.638 283.926 333.915 281.687 335.344 280.649C335.344 280.649 350.264 275.861 350.237 274.908C350.189 273.105 348.224 271.547 339.888 263.213C337.624 260.945 344.246 251.221 344.246 251.221" fill="#F99746"/>
<path d="M339.643 251.537C339.85 251.26 339.585 250.381 339.256 248.745C338.958 247.262 338.453 244.968 338.466 242.389L338.022 242.463L330.61 243.711C330.61 243.711 330.776 245.694 330.781 247.56L330.783 247.606C330.791 249.229 330.345 251.681 330.893 252.001C333.699 253.647 338.853 252.599 339.643 251.537Z" fill="#FFB27D"/>
<path d="M330.605 243.712C330.605 243.712 330.752 246.508 330.757 248.375C334.909 248.275 337.121 244.247 338.02 242.464L330.605 243.712" fill="#E8945B"/>
<path d="M330.16 247.044C330.16 247.044 339.88 245.661 338.924 239.621C337.971 233.58 338.58 229.334 332.335 229.962C326.089 230.592 325.248 233.085 325.077 235.179C324.907 237.273 327.609 247.248 330.16 247.044" fill="#FFB27D"/>
<path d="M327.896 230.518C327.896 230.518 331.675 237.181 335.918 237.579C340.156 237.978 341.751 236.605 341.751 236.605C341.751 236.605 338.231 234.62 336.891 230.39C336.891 230.39 329.358 226.827 327.896 230.518Z" fill="#163560"/>
<path d="M328.644 230.99C328.644 230.99 326.794 232.038 326.213 233.602C325.643 235.134 325.263 237.1 325.784 239.356C325.784 239.356 323.016 234.859 324.829 231.778C326.754 228.508 328.644 230.99 328.644 230.99Z" fill="#163560"/>
<path d="M542.799 392.979H3.98639C3.61608 392.979 3.31299 392.674 3.31299 392.305V391.916C3.31299 391.545 3.61608 391.242 3.98639 391.242H542.799C543.168 391.242 543.472 391.545 543.472 391.916V392.305C543.472 392.674 543.168 392.979 542.799 392.979Z" fill="#233862"/>
</svg>
